# xmcd
#
# Track frame offsets:
#	150
#	15602
#	29240
#	42202
#	59502
#	83047
#	98445
#	114467
#	131640
#	148465
#	169320
#	188552
#
# Disc length: 2804 seconds
#
# Revision: 3
# Processed by: cddbd v1.5.2PL0 Copyright (c) Steve Scherf et al.
# Submitted via: audiograbber 1.83.01
#
DISCID=a60af20c
DTITLE=Martina Mcbride - Emotion
DYEAR=1999
DGENRE=Country
TTITLE0=Do What You Do
TTITLE1=Anything's Better Than Feelin' The Blues
TTITLE2=I Love You
TTITLE3=Make Me Believe
TTITLE4=Love's The Only House
TTITLE5=There You Are
TTITLE6=It's My Time
TTITLE7=I Ain't Going Nowhere
TTITLE8=Anything And Everything
TTITLE9=From The Ashes
TTITLE10=Goodbye
TTITLE11=This Uncivil War
EXTD=
EXTT0=
EXTT1=
EXTT2=
EXTT3=
EXTT4=
EXTT5=
EXTT6=
EXTT7=
EXTT8=
EXTT9=
EXTT10=
EXTT11=
PLAYORDER=
